<?xml version="1.0" encoding="UTF-8" standalone="no"?>
<!-- Created with Inkscape (http://www.inkscape.org/) -->
<svg
   xmlns:svg="http://www.w3.org/2000/svg"
   xmlns="http://www.w3.org/2000/svg"
   version="1.0"
   width="620"
   height="399.81"
   id="svg2">
  <defs
     id="defs4" />
  <g
     transform="translate(256.5,-167.60253)"
     id="layer1">
    <path
       d="M 140.02097,556.26882 C 135.13851,554.52751 132.58773,551.96235 129.57663,545.76553 C 127.78073,542.06961 127.50335,540.52315 127.4912,534.1393 C 127.47572,525.99974 129.07044,521.10943 133.1381,516.82274 C 137.76307,511.94872 146.35236,509.74006 153.3359,511.62908 C 157.38419,512.72413 162.2562,517.10555 163.8911,521.12143 L 165.06004,523.99275 L 162.1578,524.79497 C 160.56158,525.23619 159.16699,525.33925 159.05872,525.02398 C 158.27198,522.73301 155.36657,519.14536 153.25577,517.85838 C 147.64888,514.43982 139.0631,517.08257 135.61556,523.28815 C 133.92942,526.32321 133.67785,527.73195 133.67785,534.1393 C 133.67785,540.54665 133.92942,541.95539 135.61556,544.99045 C 138.20388,549.64942 142.99278,552.20309 148.26838,551.73755 C 152.92876,551.32629 155.60427,549.41065 158.09295,544.70325 C 159.95834,541.17481 160.13189,541.0565 162.74344,541.5332 C 164.23547,541.80554 165.56769,542.13779 165.70392,542.27153 C 166.52418,543.07677 162.05206,550.88703 159.53903,553.03808 C 154.58087,557.28209 146.57689,558.60695 140.02097,556.26882 z M 185.4481,556.31581 C 180.51292,554.70239 176.28034,550.91772 173.82941,545.92668 C 171.91235,542.02281 171.65689,540.63673 171.65689,534.1393 C 171.65689,527.63528 171.91137,526.25778 173.83763,522.33511 C 178.50173,512.83705 188.1787,508.84712 198.83786,512.02719 C 207.0512,514.47758 212.11047,521.65781 212.89045,531.97094 C 213.97178,546.26862 206.24886,556.31729 193.58853,557.08562 C 190.72503,557.25941 187.36143,556.94132 185.4481,556.31581 z M 200.5168,549.15501 C 204.26591,546.16643 206.19447,542.22414 206.71487,536.48523 C 207.51268,527.68677 204.23809,520.5828 198.09966,517.79523 C 190.08685,514.15646 181.12135,518.24984 178.6144,526.69162 C 174.48487,540.59725 181.39237,552.50869 193.15352,551.7632 C 196.67388,551.54005 198.20534,550.99759 200.5168,549.15501 z M 233.5032,556.31581 C 228.56802,554.70239 224.33544,550.91772 221.88451,545.92668 C 219.96745,542.02281 219.71199,540.63673 219.71199,534.1393 C 219.71199,527.63528 219.96647,526.25778 221.89273,522.33511 C 226.55683,512.83705 236.2338,508.84712 246.89296,512.02719 C 255.1063,514.47758 260.16557,521.65781 260.94555,531.97094 C 262.02688,546.26862 254.30396,556.31729 241.64363,557.08562 C 238.78014,557.25941 235.41653,556.94132 233.5032,556.31581 z M 248.5719,549.15501 C 252.32101,546.16643 254.24958,542.22414 254.76997,536.48523 C 255.56778,527.68677 252.29319,520.5828 246.15476,517.79523 C 238.14195,514.15646 229.17645,518.24984 226.66951,526.69162 C 222.53998,540.59725 229.44747,552.50869 241.20862,551.7632 C 244.72898,551.54005 246.26044,550.99759 248.5719,549.15501 z M 269.70479,534.1393 L 269.70479,511.66191 L 272.80512,511.66191 L 275.90545,511.66191 L 275.90545,520.9629 L 275.90545,530.26389 L 287.53169,530.26389 L 299.15792,530.26389 L 299.15792,520.9629 L 299.15792,511.66191 L 302.25825,511.66191 L 305.35858,511.66191 L 305.35858,534.1393 L 305.35858,556.61668 L 302.25825,556.61668 L 299.15792,556.61668 L 299.15792,546.15307 L 299.15792,535.68946 L 287.53169,535.68946 L 275.90545,535.68946 L 275.90545,546.15307 L 275.90545,556.61668 L 272.80512,556.61668 L 269.70479,556.61668 L 269.70479,534.1393 z M 128.41533,508.77756 C 128.18779,507.59303 128.05802,506.58569 128.12695,506.53901 C 128.19588,506.49234 132.08894,505.17978 136.77818,503.62222 C 144.72258,500.98346 145.37089,500.88138 146.28339,502.12559 C 146.822,502.85999 147.14982,503.79949 147.01186,504.21335 C 146.81028,504.81808 139.56912,507.52247 130.12906,510.51863 C 129.17694,510.82082 128.71831,510.35488 128.41533,508.77756 z M -164.88909,499.73481 C -169.82427,498.12138 -174.05685,494.33672 -176.50778,489.34567 C -178.42483,485.44181 -178.6803,484.05572 -178.6803,477.55829 C -178.6803,471.05427 -178.42582,469.67677 -176.49956,465.75411 C -171.83546,456.25605 -162.15848,452.26611 -151.49933,455.44619 C -143.28599,457.89657 -138.22672,465.0768 -137.44674,475.38994 C -136.36541,489.68762 -144.08832,499.73629 -156.74866,500.50462 C -159.61215,500.6784 -162.97576,500.36031 -164.88909,499.73481 z M -149.82038,492.57401 C -146.07128,489.58542 -144.14271,485.64314 -143.62232,479.90423 C -142.82451,471.10576 -146.0991,464.00179 -152.23752,461.21423 C -160.25034,457.57545 -169.21584,461.66883 -171.72278,470.11061 C -175.85231,484.01625 -168.94482,495.92769 -157.18367,495.18219 C -153.6633,494.95904 -152.13185,494.41658 -149.82038,492.57401 z M 126.04281,496.75495 C 125.79391,495.80313 125.84043,494.78739 126.14619,494.49772 C 126.84098,493.83951 140.31186,489.73228 140.61166,490.08724 C 140.73238,490.23019 141.20386,491.0654 141.65939,491.94325 C 142.4361,493.44009 142.01835,493.69317 134.94262,496.01244 C 130.79287,497.37263 127.19463,498.48551 126.9465,498.48551 C 126.69838,498.48551 126.29172,497.70676 126.04281,496.75495 z M 123.65969,484.87635 C 123.3732,483.73488 123.24297,482.71719 123.37029,482.61481 C 123.49761,482.51244 126.26581,481.54434 129.52183,480.46348 L 135.44187,478.49828 L 136.33282,480.4537 C 136.82284,481.52917 137.12351,482.49111 137.00097,482.59134 C 136.87844,482.69156 134.33667,483.5695 131.35261,484.54229 C 128.36854,485.51509 125.53408,486.45518 125.05381,486.63138 C 124.57354,486.80757 123.94619,486.01781 123.65969,484.87635 z M 121.25177,472.82978 C 120.96755,471.93427 121.03125,470.93079 121.39331,470.5998 C 122.28648,469.78333 130.20956,467.24344 130.61102,467.6449 C 130.78736,467.82124 131.02636,468.77648 131.14213,469.76765 C 131.32035,471.2936 130.75868,471.7819 127.4772,472.95381 C 122.39536,474.76866 121.8638,474.75807 121.25177,472.82978 z M -133.72539,462.83188 C -135.19196,461.21134 -135.14541,461.15932 -107.3362,433.34206 L -79.477848,405.47564 L -83.542991,405.47564 L -87.608135,405.47564 L -87.608135,401.79804 L -87.608135,398.12044 L -115.35788,425.86215 L -143.10763,453.60386 L -144.57677,451.98048 C -146.04337,450.3599 -145.99548,450.30667 -116.82702,421.13063 L -87.608135,391.90415 L -87.637883,346.95315 L -87.667623,302.00216 L -113.58968,281.46248 C -127.84681,270.16565 -139.51779,260.74113 -139.52519,260.5191 C -139.53259,260.29706 -136.48421,257.07511 -132.751,253.3592 L -125.96337,246.60301 L -105.04181,272.93749 L -84.120265,299.27196 L -34.196262,299.28067 L 15.72774,299.28937 L 51.750774,287.59622 C 88.562322,275.64713 89.55404,275.42036 88.912667,279.09882 C 88.781392,279.85172 77.261972,283.93583 54.034934,291.4644 L 19.353219,302.70579 L 19.353219,340.13924 L 19.353219,377.57268 L 17.027972,377.57268 L 14.702725,377.57268 L 14.702725,340.36873 L 14.702725,303.16478 L -34.127458,303.16478 L -82.957641,303.16478 L -82.957641,352.3825 L -82.957641,401.60023 L -44.591069,401.60023 L -6.224496,401.60023 L -6.224496,403.53793 L -6.224496,405.47564 L -39.743077,405.47564 L -73.261657,405.47564 L -102.75895,434.96547 L -132.25623,464.45529 L -133.72539,462.83188 z M 119.0325,461.60126 C 118.06711,459.08548 118.63464,458.2219 121.81641,457.36514 C 124.66323,456.59856 125.19513,456.66168 126.07936,457.87094 C 127.62014,459.97808 127.35831,460.37468 123.79556,461.33023 C 121.9838,461.81615 120.27641,462.35077 120.00136,462.51828 C 119.72631,462.68578 119.29033,462.27312 119.0325,461.60126 z M 116.55034,449.35 C 115.85794,447.54563 116.63985,446.05845 118.54254,445.56089 C 119.78291,445.23652 120.41929,445.60213 121.05929,447.00677 C 122.05892,449.20072 121.96154,449.35661 119.1507,450.06209 C 117.57465,450.45764 116.90502,450.27427 116.55034,449.35 z M 337.32072,439.58167 C 335.92975,438.73359 334.19858,436.79595 333.47367,435.27581 C 332.32803,432.87337 332.304,432.41808 333.28992,431.7945 C 335.21551,430.57656 336.13568,430.96132 337.14922,433.40823 C 338.29943,436.18507 340.01513,437.25401 343.32188,437.25401 C 347.88881,437.25401 350.9484,432.03613 348.76914,427.96414 C 347.8429,426.23346 343.32816,424.60755 341.45,425.32826 C 340.37952,425.73904 340.15498,425.48736 340.36284,424.10969 C 340.54747,422.88608 341.51738,422.06802 343.64767,421.33916 C 348.24316,419.76685 349.33418,416.89779 346.43794,414.00155 C 343.55356,411.11716 337.63656,412.89026 336.24832,417.05499 C 336.02041,417.73869 335.32269,417.8976 334.16372,417.52975 C 331.9628,416.83121 332.48751,414.57263 335.59343,411.37567 C 338.67354,408.20527 344.19783,407.70151 347.92835,410.25083 C 352.20742,413.17502 353.00226,418.57871 349.58384,421.50565 C 348.16953,422.71662 348.20825,422.83917 350.7677,425.25304 C 358.93545,432.95622 347.11403,445.5527 337.32072,439.58167 z M 78.647013,426.77089 C 43.935581,416.21226 42.228067,415.60662 42.428627,413.92472 C 42.544393,412.95391 42.799977,411.99873 42.9966,411.80211 C 43.193215,411.60549 59.111847,416.22654 78.371331,422.07111 C 112.01133,432.27966 113.44049,432.64241 114.70865,431.29417 C 116.21534,429.69235 172.04443,352.83834 172.04443,352.36607 C 172.04443,352.19615 163.97849,340.96916 154.12012,327.41719 C 144.26175,313.86522 135.05566,301.2077 133.66214,299.28937 L 131.12848,295.8015 L 132.88292,294.48553 L 134.63734,293.16957 L 155.07762,321.35008 C 166.31977,336.84936 175.69552,349.42785 175.91264,349.30227 C 215.98475,326.12493 237.24295,314.01593 237.86027,314.01593 C 238.29295,314.01593 239.01392,314.7016 239.46242,315.53964 C 240.12906,316.78526 239.95722,317.26688 238.52084,318.17857 C 237.05176,319.11101 184.38199,349.50124 180.46339,351.67744 C 179.4823,352.2223 186.37247,356.51722 210.78816,370.58006 C 241.11688,388.04864 242.35035,388.84814 241.58021,390.53843 C 241.13895,391.50688 240.51097,392.29924 240.18469,392.29924 C 239.85841,392.29924 225.19094,383.97591 207.5903,373.80295 C 175.89341,355.48252 175.57727,355.32224 174.3405,356.94491 C 173.65375,357.84595 160.59404,375.84812 145.31895,396.94974 C 130.04384,418.05135 116.99025,435.88682 116.31096,436.58412 C 115.17027,437.75503 112.29185,437.00507 78.647013,426.77089 z M 257.0584,427.60516 C 252.17593,425.86385 249.62516,423.29869 246.61405,417.10187 C 244.81816,413.40596 244.54077,411.8595 244.52863,405.47564 C 244.51314,397.33608 246.10786,392.44577 250.17552,388.15908 C 254.8005,383.28506 263.38979,381.07641 270.37333,382.96542 C 274.42161,384.06047 279.29362,388.44189 280.92853,392.45778 L 282.09747,395.32909 L 279.19523,396.13131 C 277.599,396.57253 276.20441,396.67559 276.09615,396.36032 C 275.30941,394.06935 272.40399,390.48171 270.29319,389.19473 C 264.6863,385.77617 256.10053,388.41892 252.65298,394.62449 C 250.96684,397.65955 250.71528,399.06829 250.71528,405.47564 C 250.71528,411.88299 250.96684,413.29173 252.65298,416.32679 C 255.2413,420.98577 260.0302,423.53944 265.30581,423.07389 C 269.96618,422.66263 272.6417,420.74699 275.13037,416.03959 C 276.99576,412.51116 277.16932,412.39285 279.78086,412.86955 C 281.2729,413.14189 282.60512,413.47413 282.74134,413.60787 C 283.56161,414.41311 279.08948,422.22337 276.57646,424.37443 C 271.61829,428.61843 263.61431,429.94329 257.0584,427.60516 z M -0.79891997,405.47564 L -0.79891997,382.99825 L 2.4951792,383.01797 L 5.7892789,383.0377 L 17.219619,400.26355 L 28.649959,417.48942 L 28.652082,400.24384 L 28.654206,382.99825 L 31.754535,382.99825 L 34.854864,382.99825 L 34.854864,405.47564 L 34.854864,427.95303 L 31.560764,427.93331 L 28.266665,427.91358 L 16.836325,410.68773 L 5.4059852,393.46187 L 5.4038615,410.70745 L 5.4017378,427.95303 L 2.3014087,427.95303 L -0.79891997,427.95303 L -0.79891997,405.47564 z M 290.63202,405.47564 L 290.63202,382.99825 L 293.73234,382.99825 L 296.83267,382.99825 L 296.83267,392.29924 L 296.83267,401.60023 L 308.45891,401.60023 L 320.08514,401.60023 L 320.08514,392.29924 L 320.08514,382.99825 L 323.18547,382.99825 L 326.2858,382.99825 L 326.2858,405.47564 L 326.2858,427.95303 L 323.18547,427.95303 L 320.08514,427.95303 L 320.08514,417.48942 L 320.08514,407.02581 L 308.45891,407.02581 L 296.83267,407.02581 L 296.83267,417.48942 L 296.83267,427.95303 L 293.73234,427.95303 L 290.63202,427.95303 L 290.63202,405.47564 z M 337.32072,336.49573 C 335.92975,335.64765 334.19858,333.71001 333.47367,332.18987 C 332.32803,329.78743 332.304,329.33214 333.28992,328.70855 C 335.21551,327.49062 336.13568,327.87538 337.14922,330.32228 C 338.29943,333.09912 340.01513,334.16807 343.32188,334.16807 C 347.88881,334.16807 350.9484,328.95019 348.76914,324.8782 C 347.8429,323.14752 343.32816,321.5216 341.45,322.24232 C 340.37952,322.6531 340.15498,322.40142 340.36284,321.02375 C 340.54747,319.80014 341.51738,318.98208 343.64767,318.25321 C 348.24316,316.68091 349.33418,313.81185 346.43794,310.9156 C 343.55356,308.03122 337.63656,309.80432 336.24832,313.96905 C 336.02041,314.65275 335.32269,314.81166 334.16372,314.44381 C 331.9628,313.74527 332.48751,311.48668 335.59343,308.28973 C 338.67354,305.11933 344.19783,304.61556 347.92835,307.16489 C 352.20742,310.08908 353.00226,315.49277 349.58384,318.41971 C 348.16953,319.63067 348.20825,319.75323 350.7677,322.1671 C 358.93545,329.87028 347.11403,342.46676 337.32072,336.49573 z M 257.0584,324.51922 C 252.17593,322.77791 249.62516,320.21275 246.61405,314.01593 C 244.81816,310.32001 244.54077,308.77355 244.52863,302.3897 C 244.51314,294.25014 246.10786,289.35983 250.17552,285.07314 C 254.8005,280.19912 263.38979,277.99046 270.37333,279.87948 C 274.42161,280.97453 279.29362,285.35595 280.92853,289.37184 L 282.09747,292.24315 L 279.19523,293.04537 C 277.599,293.48659 276.20441,293.58965 276.09615,293.27438 C 275.30941,290.98341 272.40399,287.39576 270.29319,286.10879 C 264.6863,282.69022 256.10053,285.33297 252.65298,291.53855 C 250.96684,294.57361 250.71528,295.98235 250.71528,302.3897 C 250.71528,308.79705 250.96684,310.20579 252.65298,313.24085 C 255.2413,317.89982 260.0302,320.45349 265.30581,319.98795 C 269.96618,319.57669 272.6417,317.66105 275.13037,312.95365 C 276.99576,309.42521 277.16932,309.3069 279.78086,309.7836 C 281.2729,310.05594 282.60512,310.38819 282.74134,310.52193 C 283.56161,311.32717 279.08948,319.13743 276.57646,321.28848 C 271.61829,325.53249 263.61431,326.85735 257.0584,324.51922 z M 290.63202,302.3897 L 290.63202,279.91231 L 293.73234,279.91231 L 296.83267,279.91231 L 296.83267,289.2133 L 296.83267,298.51429 L 308.45891,298.51429 L 320.08514,298.51429 L 320.08514,289.2133 L 320.08514,279.91231 L 323.18547,279.91231 L 326.2858,279.91231 L 326.2858,302.3897 L 326.2858,324.86708 L 323.18547,324.86708 L 320.08514,324.86708 L 320.08514,314.40347 L 320.08514,303.93986 L 308.45891,303.93986 L 296.83267,303.93986 L 296.83267,314.40347 L 296.83267,324.86708 L 293.73234,324.86708 L 290.63202,324.86708 L 290.63202,302.3897 z M 107.6125,293.42613 C 103.31072,292.10156 98.889139,287.57087 97.692427,283.26127 C 96.417851,278.67125 96.557149,278.36215 99.900187,278.36215 C 102.63562,278.36215 102.98912,278.59061 103.44165,280.651 C 103.71814,281.90986 104.67638,283.87046 105.57108,285.00787 C 111.22518,292.19589 125.53949,289.5055 125.53949,281.25479 C 125.53949,277.66293 122.78493,275.75724 114.18328,273.39816 C 105.12799,270.91468 102.10354,269.29379 99.95759,265.77415 C 96.776505,260.55675 99.03673,253.35359 104.81647,250.28926 C 109.19914,247.96564 119.02932,247.81043 123.45177,249.99503 C 126.95325,251.72469 129.98667,255.44953 130.66798,258.85605 C 131.15564,261.29439 131.13807,261.31034 127.96162,261.31034 C 125.65148,261.31034 124.76441,260.99116 124.76441,260.15995 C 124.76441,259.52722 123.76989,257.8965 122.55438,256.53609 C 120.63503,254.38797 119.73387,254.01848 115.70291,253.72691 C 108.95664,253.23893 104.61227,255.85226 104.61227,260.39843 C 104.61227,263.54791 107.13956,265.22756 115.30159,267.50259 C 127.64306,270.94259 130.92004,273.56012 131.49327,280.43589 C 132.36029,290.83564 120.37423,297.35562 107.6125,293.42613 z M 14.702725,288.05068 C 14.702725,286.3681 15.045761,286.11297 17.308032,286.11297 C 19.66908,286.11297 19.878608,286.29463 19.54292,288.05068 C 19.249823,289.58391 18.706002,289.98838 16.937613,289.98838 C 15.070455,289.98838 14.702725,289.66955 14.702725,288.05068 z M 13.152561,276.42444 C 13.152561,274.61592 13.410919,274.48674 17.027972,274.48674 C 20.645025,274.48674 20.903383,274.61592 20.903383,276.42444 C 20.903383,278.23296 20.645025,278.36215 17.027972,278.36215 C 13.410919,278.36215 13.152561,278.23296 13.152561,276.42444 z M 12.11912,266.99427 C 11.834921,266.71008 11.602396,265.66372 11.602396,264.66903 C 11.602396,262.94662 11.860754,262.8605 17.027972,262.8605 L 22.453548,262.8605 L 22.453548,265.18575 L 22.453548,267.511 L 17.544696,267.511 C 14.844821,267.511 12.403312,267.27847 12.11912,266.99427 z M -204.64556,265.1348 C -204.64556,263.14435 -202.43153,260.43487 -194.8702,253.17197 C -187.93203,246.50764 -186.80214,245.07593 -186.80978,242.95839 C -186.82838,237.80291 -194.23378,235.32645 -198.09259,239.18526 C -199.13895,240.23162 -199.99506,241.62677 -199.99506,242.28559 C -199.99506,243.60174 -201.34644,243.83123 -202.98456,242.79326 C -204.22154,242.00948 -203.57179,239.19547 -201.64915,237.00966 C -195.14085,229.61053 -181.92568,234.31829 -183.16966,243.5928 C -183.69201,247.48729 -186.26078,250.82093 -193.0312,256.39074 C -196.00874,258.84027 -198.4449,261.12365 -198.4449,261.46492 C -198.4449,261.8062 -194.95703,262.08542 -190.69408,262.08542 C -182.94325,262.08542 -182.94325,262.08542 -182.94325,264.02313 L -182.94325,265.96083 L -193.79441,265.96083 C -200.95803,265.96083 -204.64556,265.68012 -204.64556,265.1348 z M 10.816734,255.30345 C 10.810913,254.98373 10.595835,253.93737 10.338787,252.9782 C 9.8791401,251.26303 9.9879694,251.23427 16.937574,251.23427 L 24.003712,251.23427 L 24.003712,253.55952 L 24.003712,255.88476 L 17.415513,255.88476 C 13.792003,255.88476 10.822555,255.62317 10.816734,255.30345 z M -246.5,230.30705 L -246.5,207.82966 L -243.39967,207.82966 L -240.29934,207.82966 L -240.29934,217.13065 L -240.29934,226.43164 L -228.67311,226.43164 L -217.04687,226.43164 L -217.04687,217.13065 L -217.04687,207.82966 L -213.94654,207.82966 L -210.84622,207.82966 L -210.84622,230.30705 L -210.84622,252.78443 L -213.94654,252.78443 L -217.04687,252.78443 L -217.04687,242.32082 L -217.04687,231.85721 L -228.67311,231.85721 L -240.29934,231.85721 L -240.29934,242.32082 L -240.29934,252.78443 L -243.39967,252.78443 L -246.5,252.78443 L -246.5,230.30705 z M -175.96751,230.30705 L -175.96751,207.82966 L -172.67341,207.84938 L -169.37931,207.8691 L -157.94897,225.09496 L -146.51863,242.32082 L -146.51651,225.07524 L -146.51439,207.82966 L -143.41406,207.82966 L -140.31373,207.82966 L -140.31373,230.30705 L -140.31373,252.78443 L -143.60783,252.76471 L -146.90193,252.74499 L -158.33227,235.51913 L -169.76261,218.29327 L -169.76473,235.53885 L -169.76685,252.78443 L -172.86718,252.78443 L -175.96751,252.78443 L -175.96751,230.30705 z M 9.2771492,243.57395 C 9.2771492,243.16761 9.0654432,242.28344 8.8066819,241.60913 C 8.3949737,240.53623 9.4181056,240.38312 16.998953,240.38312 C 25.539197,240.38312 25.658187,240.40778 25.414013,242.12705 C 25.17797,243.78905 24.793095,243.88137 17.221742,244.09187 C 12.547648,244.22183 9.2771492,244.00862 9.2771492,243.57395 z M 7.7269846,230.69459 L 7.7269846,228.75688 L 17.415513,228.75688 C 22.782493,228.75688 27.104041,229.07433 27.104041,229.46857 C 27.104041,232.38227 26.301196,232.63229 16.945046,232.63229 L 7.7269846,232.63229 L 7.7269846,230.69459 z M -0.79891997,200.07884 L -0.79891997,177.60145 L 2.3014087,177.60145 L 5.4017378,177.60145 L 5.4017378,186.90244 L 5.4017378,196.20343 L 17.027972,196.20343 L 28.654206,196.20343 L 28.654206,186.90244 L 28.654206,177.60145 L 31.754535,177.60145 L 34.854864,177.60145 L 34.854864,200.07884 L 34.854864,222.55622 L 31.754535,222.55622 L 28.654206,222.55622 L 28.654206,212.09261 L 28.654206,201.629 L 17.027972,201.629 L 5.4017378,201.629 L 5.4017378,212.09261 L 5.4017378,222.55622 L 2.3014087,222.55622 L -0.79891997,222.55622 L -0.79891997,200.07884 z"
       id="path2525"
       style="fill:#000000" />
  </g>
</svg>
