<?xml version="1.0" encoding="UTF-8" standalone="no"?>
<!-- Created with Inkscape (http://www.inkscape.org/) -->
<svg
 xmlns="http://www.w3.org/2000/svg"
 xmlns:xlink="http://www.w3.org/1999/xlink"
 width="785"
 height="428">
<path
 d="m 553.1467,132.09659 0,-32.21191 4.2627,0 0,13.22754 16.74316,0 0,-13.22754 4.2627,0 0,32.21191 -4.2627,0 0,-15.1831 -16.74316,0 0,15.1831 -4.2627,0 z"
 id="H"
 fill="#000" />
<path
 d="m 552.98435,270.69659 0,-32.21193 4.37256,0 16.91895,25.29053 0,-25.29053 4.08691,0 0,32.21193 -4.37256,0 -16.91894,-25.3125 0,25.3125 -4.08692,0 z"
 id="N"
 fill="#000" />
<path
 d="m 47.25586,179.57902 c 0,-5.34666 1.43555,-9.53245 4.30663,-12.55737 2.87109,-3.02488 6.57714,-4.53732 11.11817,-4.53736 2.973608,4e-5 5.654268,0.71048 8.041984,2.13135 2.38767,1.42092 4.20773,3.40212 5.46021,5.94361 1.25241,2.54152 1.87863,5.42359 1.87866,8.64623 -3e-5,3.26661 -0.65921,6.18897 -1.97754,8.7671 -1.31839,2.57812 -3.18606,4.53003 -5.60303,5.8557 -2.417006,1.32569 -5.024426,1.98854 -7.822254,1.98854 -3.03225,0 -5.7422,-0.73243 -8.12989,-2.19727 -2.3877,-1.46485 -4.19678,-3.46436 -5.42724,-5.99854 -1.23047,-2.53416 -1.84571,-5.21483 -1.84571,-8.04199 l 0,0 z m 4.39453,0.0659 c -1e-5,3.88185 1.04369,6.93971 3.1311,9.17359 2.08739,2.23389 4.70579,3.35083 7.85522,3.35083 3.207988,0 5.848368,-1.12793 7.921154,-3.38378 2.07272,-2.25586 3.1091,-5.45653 3.10912,-9.60206 -3e-5,-2.62204 -0.44315,-4.91087 -1.32935,-6.86645 -0.88625,-1.95555 -2.18263,-3.47166 -3.889156,-4.54835 -1.70656,-1.07663 -3.62184,-1.61496 -5.745838,-1.61499 -3.0176,3e-5 -5.61403,1.03641 -7.78931,3.10913 -2.1753,2.07278 -3.26294,5.53347 -3.26294,10.38208 l 0,0 z"
 id="O"
 fill="#000" />
<use
 transform="translate(545.92513,213.96805)"
 xlink:href="#O" />
<path
 d="m 469.64393,150.79721 -7.59375,7.59375 33.09375,28.3125 2.8125,-2.8125 -28.3125,-33.09375 z m -131.12037,-96.62647 -8.78125,52.375 2.875,0.78125 18.71875,-49.40625 -12.8125,-3.75 z m 280.09614,117.06627 4.02101,-0.35156 c 0.19042,1.61133 0.63353,2.93335 1.32934,3.96606 0.6958,1.03272 1.77612,1.86768 3.24097,2.50488 1.46483,0.63722 3.11278,0.95582 4.94385,0.95582 1.62596,1e-5 3.0615,-0.24169 4.30664,-0.72509 1.2451,-0.4834 2.17161,-1.14624 2.77954,-1.98853 0.60789,-0.84228 0.91184,-1.76147 0.91187,-2.75757 -3e-5,-1.01073 -0.293,-1.8933 -0.87891,-2.6477 -0.58596,-0.75439 -1.55276,-1.38793 -2.90039,-1.90064 -0.86428,-0.3369 -2.7759,-0.86058 -5.73487,-1.57104 -2.959,-0.71044 -5.03175,-1.3806 -6.21827,-2.0105 -1.53809,-0.80565 -2.68433,-1.8054 -3.43872,-2.99927 -0.75439,-1.19382 -1.13159,-2.53049 -1.13159,-4.01001 0,-1.62595 0.46142,-3.14572 1.38428,-4.55932 0.92284,-1.41355 2.2705,-2.48655 4.04297,-3.219 1.77245,-0.73239 3.74266,-1.0986 5.91064,-1.09863 2.38768,3e-5 4.49339,0.38455 6.31714,1.15356 1.82371,0.76908 3.22629,1.90067 4.20776,3.39478 0.98142,1.49417 1.50878,3.18606 1.58204,5.07568 l -4.08692,0.30762 c -0.21975,-2.03611 -0.96316,-3.57419 -2.23022,-4.61426 -1.26711,-1.04001 -3.13844,-1.56003 -5.61401,-1.56006 -2.57813,3e-5 -4.4568,0.47244 -5.63599,1.41724 -1.17921,0.94485 -1.7688,2.08377 -1.7688,3.41675 0,1.15725 0.41747,2.10939 1.25244,2.85644 0.8203,0.74709 2.96263,1.51247 6.427,2.29615 3.46434,0.78371 5.84105,1.46852 7.13014,2.05444 1.87497,0.86427 3.25925,1.95924 4.15282,3.28491 0.89353,1.3257 1.3403,2.8528 1.34033,4.5813 -3e-5,1.71387 -0.49075,3.32886 -1.47217,4.84497 -0.98147,1.51612 -2.39138,2.69531 -4.22973,3.5376 -1.8384,0.84228 -3.90749,1.26343 -6.20728,1.26343 -2.91505,0 -5.35767,-0.42481 -7.32788,-1.27442 -1.97022,-0.84961 -3.51563,-2.12768 -4.63623,-3.83423 -1.12061,-1.70653 -1.71021,-3.63646 -1.7688,-5.78979 l 0,0 z M 414.07419,58.49924 l 0,2.7876 -15.61377,0 c -0.0215,-0.69824 0.0913,-1.36963 0.33838,-2.01416 0.39746,-1.06347 1.03393,-2.11083 1.90942,-3.14209 0.87549,-1.03124 2.14038,-2.22362 3.79468,-3.57715 2.56737,-2.10545 4.30223,-3.77318 5.20459,-5.00317 0.90233,-1.22996 1.3535,-2.3928 1.35352,-3.48852 -2e-5,-1.1494 -0.41091,-2.11888 -1.23267,-2.90845 -0.82179,-0.78953 -1.89332,-1.18431 -3.2146,-1.18433 -1.39649,2e-5 -2.51368,0.41897 -3.35156,1.25684 -0.8379,0.83791 -1.26221,1.99806 -1.27295,3.48047 l -2.98096,-0.30616 c 0.2041,-2.22361 0.97217,-3.91819 2.3042,-5.08374 1.33203,-1.1655 3.1206,-1.74826 5.36572,-1.74829 2.26659,3e-5 4.06054,0.62844 5.38184,1.88526 1.32127,1.25685 1.98192,2.81447 1.98193,4.67285 -1e-5,0.94533 -0.19337,1.87453 -0.58008,2.7876 -0.38673,0.9131 -1.02858,1.87452 -1.92553,2.88427 -0.89699,1.00978 -2.38747,2.39552 -4.47144,4.15723 -1.74024,1.46094 -2.85743,2.45191 -3.35156,2.9729 -0.49415,0.521 -0.90235,1.04468 -1.22461,1.57104 l 11.58545,0 z"
 fill="#000" />
<use
 transform="translate(190.20048,240.44447)"
 xlink:href="#H" />
<use
 transform="translate(-118.47043,-18.338317)"
 xlink:href="#H" />
<use
 transform="translate(-536.76243,63.159921)"
 xlink:href="#H" />
<use
 transform="translate(-118.36301,-116.4383)"
 xlink:href="#N" />
<use
 transform="translate(659.68264,177.28455)"
 xlink:href="#O" />
<use
 transform="translate(386.62511,124.26805)"
 xlink:href="#O" />
<use
 transform="translate(300.01369,43.619859)"
 xlink:href="#O" />
<path
 d="m 264.5576,123.39005 -17.7,66.9 -67.2,18 -48.9,-49.2 m 133.8,-35.7 -48.9,-49.2 -66.9,18 -18,66.9 m 241.5,44.4 13.21803,-50.35441 m -254.71803,5.95441 -47.099998,12.6 m 56.699998,-13.8 16.2,-59.4 m 24.6,99.9 59.4,-15.9 m -28.5,-99 43.5,43.5 m 173.4,14.4 -48.3,12.9 -48.9,-48.9 -67.2,18 m 99,77.7 13.21803,-50.35441 m 254.29571,127.45923 2.47275,-0.80344 m -0.26223,9.54836 3.61402,-1.17426 m -1.68882,10.01189 5.32592,-1.7305 m -3.40071,10.56812 7.0378,-2.28672 m -5.11261,11.12434 8.74972,-2.84296 m -6.82452,11.68059 10.46163,-3.39918 m -8.53643,12.23681 12.17354,-3.95542 m -10.24833,12.79304 13.88543,-4.51164 m -74.37111,-74.95731 47.4,15.3 40.8,-55.8 m -104.9,-43.2 -3.8,0 m 4.4,-9 -5,0 m 5.9,-9 -6.8,0 m 7.7,-9 -8.60001,0 m 9.5,-9 -10.39999,0 m 95.8,204 -30.60001,34.2 m 46.80001,-159 57.89999,-37.8 m -57.89999,37.8 60,34.8 m -79.5,87 48.29999,10.2 m -198.63985,-97.16015 -35.66014,35.66015 m 29.36014,-42.26014 -35.06014,35.06014 m 185.1,-99.3 26.1,36 m -58.5,-50.4 -48.3,15.6 m 0,0 0,49.19999 m 0,-49.19999 -69.3,0 0,69.3 50.7,0 m 102.59999,84.3 -30.6,34.2"
 style="fill:none;stroke:#000;stroke-width:3" />
<use
 transform="translate(-184.41022,-81.66955)"
 xlink:href="#H" />
<use
 transform="translate(-216.94318,-220.26953)"
 xlink:href="#N" />
</svg>
