<?xml version="1.0" encoding="UTF-8"?>
<!-- Converted by misc2svg (http://www.network-science.de/tools/misc2svg/) -->
<svg xmlns="http://www.w3.org/2000/svg" xmlns:xlink="http://www.w3.org/1999/xlink" width="479pt" height="254pt" viewBox="0 0 479 254" version="1.1">
<defs>
<clipPath id="clip1">
  <path d="M 0 253.75 L 478.75 253.75 L 478.75 0 L 0 0 L 0 253.75 Z M 0 253.75 "/>
</clipPath>
</defs>
<g id="misc2svg">
<g clip-path="url(#clip1)" clip-rule="nonzero">
<path style=" stroke:none;fill-rule: nonzero; fill: rgb(0%,0%,0%); fill-opacity: 1;" d="M 302.910156 152.1875 L 302.910156 130.703125 L 305.820312 130.703125 L 317.109375 147.578125 L 317.109375 130.703125 L 319.824219 130.703125 L 319.824219 152.1875 L 316.914062 152.1875 L 305.644531 135.3125 L 305.644531 152.1875 L 302.910156 152.1875 Z M 302.910156 152.1875 "/>
<path style=" stroke:none;fill-rule: nonzero; fill: rgb(0%,0%,0%); fill-opacity: 1;" d="M 262.875 140.375 L 260.75 142.5 L 260.75 92.4375 L 261.8125 91.875 L 262.875 92.9375 L 262.875 140.375 Z M 262.875 140.375 "/>
<path style=" stroke:none;fill-rule: nonzero; fill: rgb(0%,0%,0%); fill-opacity: 1;" d="M 300.125 140.375 L 300.125 142.5 L 260.75 142.5 L 262.875 140.375 L 300.125 140.375 Z M 300.125 140.375 "/>
<path style=" stroke:none;fill-rule: nonzero; fill: rgb(0%,0%,0%); fill-opacity: 1;" d="M 310.375 92.9375 L 311.4375 91.875 L 312.5 92.625 L 312.5 127.9375 L 310.375 127.9375 L 310.375 92.9375 Z M 310.375 92.9375 "/>
<path style=" stroke:none;fill-rule: nonzero; fill: rgb(0%,0%,0%); fill-opacity: 1;" d="M 262.875 92.9375 L 261.8125 91.875 L 262.0625 90.8125 L 311.25 90.8125 L 311.4375 91.875 L 310.375 92.9375 L 262.875 92.9375 Z M 262.875 92.9375 "/>
<path style=" stroke:none;fill-rule: nonzero; fill: rgb(0%,0%,0%); fill-opacity: 1;" d="M 350.097656 80.542969 L 352.773438 80.308594 C 352.898438 81.378906 353.195312 82.257812 353.652344 82.945312 C 354.121094 83.640625 354.84375 84.195312 355.820312 84.625 C 356.796875 85.046875 357.894531 85.25 359.121094 85.25 C 360.199219 85.25 361.15625 85.09375 361.992188 84.78125 C 362.820312 84.460938 363.441406 84.015625 363.847656 83.453125 C 364.25 82.882812 364.453125 82.261719 364.453125 81.597656 C 364.453125 80.933594 364.257812 80.347656 363.867188 79.839844 C 363.476562 79.332031 362.832031 78.914062 361.933594 78.570312 C 361.359375 78.351562 360.082031 78.003906 358.105469 77.535156 C 356.136719 77.054688 354.757812 76.609375 353.964844 76.1875 C 352.933594 75.65625 352.167969 74.992188 351.660156 74.195312 C 351.164062 73.390625 350.917969 72.496094 350.917969 71.519531 C 350.917969 70.425781 351.21875 69.410156 351.835938 68.472656 C 352.460938 67.535156 353.359375 66.828125 354.53125 66.34375 C 355.710938 65.851562 357.03125 65.601562 358.476562 65.601562 C 360.0625 65.601562 361.464844 65.855469 362.675781 66.363281 C 363.898438 66.871094 364.835938 67.628906 365.488281 68.628906 C 366.152344 69.621094 366.503906 70.75 366.542969 72.007812 L 363.828125 72.222656 C 363.679688 70.855469 363.1875 69.828125 362.34375 69.136719 C 361.492188 68.449219 360.242188 68.101562 358.59375 68.101562 C 356.875 68.101562 355.617188 68.421875 354.824219 69.058594 C 354.042969 69.683594 353.652344 70.441406 353.652344 71.324219 C 353.652344 72.09375 353.929688 72.726562 354.492188 73.21875 C 355.039062 73.726562 356.464844 74.242188 358.769531 74.761719 C 361.085938 75.285156 362.675781 75.738281 363.535156 76.128906 C 364.785156 76.703125 365.703125 77.433594 366.289062 78.316406 C 366.882812 79.203125 367.1875 80.21875 367.1875 81.363281 C 367.1875 82.511719 366.859375 83.589844 366.210938 84.605469 C 365.554688 85.609375 364.617188 86.398438 363.398438 86.96875 C 362.171875 87.527344 360.789062 87.808594 359.257812 87.808594 C 357.3125 87.808594 355.6875 87.527344 354.375 86.96875 C 353.054688 86.398438 352.023438 85.542969 351.269531 84.410156 C 350.527344 83.265625 350.136719 81.976562 350.097656 80.542969 Z M 350.097656 80.542969 "/>
<path style=" stroke:none;fill-rule: nonzero; fill: rgb(0%,0%,0%); fill-opacity: 1;" d="M 358.1875 155.5625 L 358.625 156.8125 L 355.625 156.9375 L 323.3125 146.4375 L 324 144.4375 L 358.1875 155.5625 Z M 358.1875 155.5625 "/>
<path style=" stroke:none;fill-rule: nonzero; fill: rgb(0%,0%,0%); fill-opacity: 1;" d="M 386.4375 116.625 L 387.75 116.625 L 388.0625 118.0625 L 359.75 157 L 358.625 156.8125 L 358.1875 155.5625 L 386.4375 116.625 Z M 386.4375 116.625 "/>
<path style=" stroke:none;fill-rule: nonzero; fill: rgb(0%,0%,0%); fill-opacity: 1;" d="M 366.125 88.6875 L 367.8125 87.4375 L 388.0625 115.25 L 387.75 116.625 L 386.4375 116.625 L 366.125 88.6875 Z M 366.125 88.6875 "/>
<path style=" stroke:none;fill-rule: nonzero; fill: rgb(0%,0%,0%); fill-opacity: 1;" d="M 312.5 92.625 L 311.4375 91.875 L 311.25 90.8125 L 346.3125 79.375 L 347 81.4375 L 312.5 92.625 Z M 312.5 92.625 "/>
<path style=" stroke:none;fill-rule: nonzero; fill: rgb(0%,0%,0%); fill-opacity: 1;" d="M 437.386719 95.273438 L 440.238281 95.996094 C 439.636719 98.328125 438.5625 100.113281 437.015625 101.347656 C 435.460938 102.574219 433.570312 103.183594 431.332031 103.183594 C 429.027344 103.183594 427.140625 102.714844 425.6875 101.777344 C 424.242188 100.828125 423.140625 99.460938 422.386719 97.675781 C 421.628906 95.878906 421.253906 93.960938 421.253906 91.914062 C 421.253906 89.679688 421.671875 87.726562 422.523438 86.054688 C 423.382812 84.390625 424.597656 83.125 426.175781 82.265625 C 427.75 81.40625 429.484375 80.976562 431.390625 80.976562 C 433.539062 80.976562 435.339844 81.523438 436.800781 82.617188 C 438.269531 83.710938 439.289062 85.25 439.867188 87.226562 L 437.074219 87.890625 C 436.566406 86.328125 435.835938 85.191406 434.886719 84.472656 C 433.949219 83.757812 432.761719 83.398438 431.332031 83.398438 C 429.675781 83.398438 428.296875 83.796875 427.191406 84.589844 C 426.082031 85.386719 425.300781 86.445312 424.847656 87.773438 C 424.402344 89.101562 424.183594 90.476562 424.183594 91.894531 C 424.183594 93.71875 424.441406 95.3125 424.964844 96.679688 C 425.496094 98.046875 426.320312 99.070312 427.445312 99.746094 C 428.578125 100.410156 429.792969 100.742188 431.097656 100.742188 C 432.699219 100.742188 434.046875 100.289062 435.140625 99.375 C 436.242188 98.453125 436.996094 97.085938 437.386719 95.273438 Z M 437.386719 95.273438 "/>
<path style=" stroke:none;fill-rule: nonzero; fill: rgb(0%,0%,0%); fill-opacity: 1;" d="M 443.8125 102.8125 L 443.8125 81.328125 L 446.664062 81.328125 L 446.664062 90.15625 L 457.816406 90.15625 L 457.816406 81.328125 L 460.667969 81.328125 L 460.667969 102.8125 L 457.816406 102.8125 L 457.816406 92.695312 L 446.664062 92.695312 L 446.664062 102.8125 L 443.8125 102.8125 Z M 443.8125 102.8125 "/>
<path style=" stroke:none;fill-rule: nonzero; fill: rgb(0%,0%,0%); fill-opacity: 1;" d="M 464.078125 104.910156 L 466.070312 104.65625 C 466.292969 105.78125 466.675781 106.585938 467.222656 107.078125 C 467.769531 107.578125 468.433594 107.820312 469.214844 107.820312 C 470.152344 107.820312 470.941406 107.503906 471.578125 106.863281 C 472.214844 106.214844 472.535156 105.414062 472.535156 104.460938 C 472.535156 103.554688 472.234375 102.800781 471.636719 102.214844 C 471.050781 101.621094 470.300781 101.316406 469.390625 101.316406 C 469.011719 101.316406 468.542969 101.394531 467.984375 101.550781 L 468.199219 99.8125 C 468.328125 99.828125 468.441406 99.832031 468.53125 99.832031 C 469.363281 99.832031 470.121094 99.613281 470.796875 99.167969 C 471.472656 98.730469 471.8125 98.050781 471.8125 97.136719 C 471.8125 96.410156 471.566406 95.808594 471.070312 95.339844 C 470.574219 94.863281 469.945312 94.617188 469.175781 94.617188 C 468.40625 94.617188 467.761719 94.863281 467.242188 95.339844 C 466.734375 95.824219 466.410156 96.550781 466.265625 97.527344 L 464.292969 97.175781 C 464.527344 95.847656 465.074219 94.824219 465.933594 94.089844 C 466.792969 93.363281 467.859375 92.996094 469.136719 92.996094 C 470.007812 92.996094 470.816406 93.1875 471.558594 93.5625 C 472.300781 93.945312 472.867188 94.457031 473.257812 95.105469 C 473.648438 95.761719 473.84375 96.449219 473.84375 97.175781 C 473.84375 97.878906 473.65625 98.519531 473.277344 99.089844 C 472.914062 99.652344 472.359375 100.101562 471.617188 100.4375 C 472.566406 100.664062 473.304688 101.121094 473.824219 101.824219 C 474.359375 102.519531 474.625 103.378906 474.625 104.402344 C 474.625 105.808594 474.109375 107.011719 473.082031 107.996094 C 472.066406 108.972656 470.777344 109.460938 469.214844 109.460938 C 467.796875 109.460938 466.617188 109.042969 465.679688 108.191406 C 464.753906 107.347656 464.222656 106.253906 464.078125 104.910156 Z M 464.078125 104.910156 "/>
<path style=" stroke:none;fill-rule: nonzero; fill: rgb(0%,0%,0%); fill-opacity: 1;" d="M 418.875 97.5 L 419.9375 99.3125 L 389.875 116.625 L 387.75 116.625 L 388.0625 115.25 L 418.875 97.5 Z M 418.875 97.5 "/>
<path style=" stroke:none;fill-rule: nonzero; fill: rgb(0%,0%,0%); fill-opacity: 1;" d="M 437.386719 144.835938 L 440.238281 145.558594 C 439.636719 147.890625 438.5625 149.675781 437.015625 150.910156 C 435.460938 152.136719 433.570312 152.746094 431.332031 152.746094 C 429.027344 152.746094 427.140625 152.277344 425.6875 151.339844 C 424.242188 150.390625 423.140625 149.023438 422.386719 147.238281 C 421.628906 145.441406 421.253906 143.523438 421.253906 141.476562 C 421.253906 139.242188 421.671875 137.289062 422.523438 135.617188 C 423.382812 133.953125 424.597656 132.6875 426.175781 131.828125 C 427.75 130.96875 429.484375 130.539062 431.390625 130.539062 C 433.539062 130.539062 435.339844 131.085938 436.800781 132.179688 C 438.269531 133.273438 439.289062 134.8125 439.867188 136.789062 L 437.074219 137.453125 C 436.566406 135.890625 435.835938 134.753906 434.886719 134.035156 C 433.949219 133.320312 432.761719 132.960938 431.332031 132.960938 C 429.675781 132.960938 428.296875 133.359375 427.191406 134.152344 C 426.082031 134.949219 425.300781 136.007812 424.847656 137.335938 C 424.402344 138.664062 424.183594 140.039062 424.183594 141.457031 C 424.183594 143.28125 424.441406 144.875 424.964844 146.242188 C 425.496094 147.609375 426.320312 148.632812 427.445312 149.308594 C 428.578125 149.972656 429.792969 150.304688 431.097656 150.304688 C 432.699219 150.304688 434.046875 149.851562 435.140625 148.9375 C 436.242188 148.015625 436.996094 146.648438 437.386719 144.835938 Z M 437.386719 144.835938 "/>
<path style=" stroke:none;fill-rule: nonzero; fill: rgb(0%,0%,0%); fill-opacity: 1;" d="M 443.8125 152.375 L 443.8125 130.890625 L 446.664062 130.890625 L 446.664062 139.71875 L 457.816406 139.71875 L 457.816406 130.890625 L 460.667969 130.890625 L 460.667969 152.375 L 457.816406 152.375 L 457.816406 142.257812 L 446.664062 142.257812 L 446.664062 152.375 L 443.8125 152.375 Z M 443.8125 152.375 "/>
<path style=" stroke:none;fill-rule: nonzero; fill: rgb(0%,0%,0%); fill-opacity: 1;" d="M 464.078125 154.472656 L 466.070312 154.21875 C 466.292969 155.34375 466.675781 156.148438 467.222656 156.640625 C 467.769531 157.140625 468.433594 157.382812 469.214844 157.382812 C 470.152344 157.382812 470.941406 157.066406 471.578125 156.425781 C 472.214844 155.777344 472.535156 154.976562 472.535156 154.023438 C 472.535156 153.117188 472.234375 152.363281 471.636719 151.777344 C 471.050781 151.183594 470.300781 150.878906 469.390625 150.878906 C 469.011719 150.878906 468.542969 150.957031 467.984375 151.113281 L 468.199219 149.375 C 468.328125 149.390625 468.441406 149.394531 468.53125 149.394531 C 469.363281 149.394531 470.121094 149.175781 470.796875 148.730469 C 471.472656 148.292969 471.8125 147.613281 471.8125 146.699219 C 471.8125 145.972656 471.566406 145.371094 471.070312 144.902344 C 470.574219 144.425781 469.945312 144.179688 469.175781 144.179688 C 468.40625 144.179688 467.761719 144.425781 467.242188 144.902344 C 466.734375 145.386719 466.410156 146.113281 466.265625 147.089844 L 464.292969 146.738281 C 464.527344 145.410156 465.074219 144.386719 465.933594 143.652344 C 466.792969 142.925781 467.859375 142.558594 469.136719 142.558594 C 470.007812 142.558594 470.816406 142.75 471.558594 143.125 C 472.300781 143.507812 472.867188 144.019531 473.257812 144.667969 C 473.648438 145.324219 473.84375 146.011719 473.84375 146.738281 C 473.84375 147.441406 473.65625 148.082031 473.277344 148.652344 C 472.914062 149.214844 472.359375 149.664062 471.617188 150 C 472.566406 150.226562 473.304688 150.683594 473.824219 151.386719 C 474.359375 152.082031 474.625 152.941406 474.625 153.964844 C 474.625 155.371094 474.109375 156.574219 473.082031 157.558594 C 472.066406 158.535156 470.777344 159.023438 469.214844 159.023438 C 467.796875 159.023438 466.617188 158.605469 465.679688 157.753906 C 464.753906 156.910156 464.222656 155.816406 464.078125 154.472656 Z M 464.078125 154.472656 "/>
<path style=" stroke:none;fill-rule: nonzero; fill: rgb(0%,0%,0%); fill-opacity: 1;" d="M 420.0625 134.0625 L 419 135.9375 L 388.0625 118.0625 L 387.75 116.625 L 389.875 116.625 L 420.0625 134.0625 Z M 420.0625 134.0625 "/>
<path style=" stroke:none;fill-rule: nonzero; fill: rgb(0%,0%,0%); fill-opacity: 1;" d="M 372.3125 203.875 L 370.5625 205.5625 L 358 158.5625 L 358.625 156.8125 L 359.75 157 L 372.3125 203.875 Z M 372.3125 203.875 "/>
<path style=" stroke:none;fill-rule: nonzero; fill: rgb(0%,0%,0%); fill-opacity: 1;" d="M 409.132812 218.03125 C 409.132812 214.476562 410.089844 211.695312 412.003906 209.671875 C 413.917969 207.65625 416.390625 206.644531 419.425781 206.644531 C 421.402344 206.644531 423.1875 207.125 424.777344 208.070312 C 426.378906 209.007812 427.59375 210.332031 428.429688 212.035156 C 429.257812 213.730469 429.679688 215.648438 429.679688 217.796875 C 429.679688 219.976562 429.234375 221.917969 428.351562 223.636719 C 427.476562 225.355469 426.234375 226.660156 424.621094 227.542969 C 423.003906 228.429688 421.265625 228.871094 419.40625 228.871094 C 417.382812 228.871094 415.578125 228.382812 413.976562 227.40625 C 412.382812 226.429688 411.183594 225.097656 410.363281 223.402344 C 409.542969 221.710938 409.132812 219.921875 409.132812 218.03125 Z M 412.0625 218.089844 C 412.0625 220.667969 412.757812 222.710938 414.152344 224.203125 C 415.542969 225.6875 417.289062 226.429688 419.386719 226.429688 C 421.535156 226.429688 423.296875 225.683594 424.679688 224.183594 C 426.054688 222.675781 426.75 220.539062 426.75 217.777344 C 426.75 216.035156 426.445312 214.511719 425.851562 213.207031 C 425.265625 211.894531 424.398438 210.878906 423.253906 210.160156 C 422.121094 209.445312 420.851562 209.085938 419.445312 209.085938 C 417.421875 209.085938 415.6875 209.78125 414.230469 211.15625 C 412.785156 212.539062 412.0625 214.847656 412.0625 218.089844 Z M 412.0625 218.089844 "/>
<path style=" stroke:none;fill-rule: nonzero; fill: rgb(0%,0%,0%); fill-opacity: 1;" d="M 433.429688 228.5 L 433.429688 207.015625 L 436.28125 207.015625 L 436.28125 215.84375 L 447.433594 215.84375 L 447.433594 207.015625 L 450.285156 207.015625 L 450.285156 228.5 L 447.433594 228.5 L 447.433594 218.382812 L 436.28125 218.382812 L 436.28125 228.5 L 433.429688 228.5 Z M 433.429688 228.5 "/>
<path style=" stroke:none;fill-rule: nonzero; fill: rgb(0%,0%,0%); fill-opacity: 1;" d="M 406.9375 213.125 L 406.375 215.1875 L 370.5625 205.5625 L 372.3125 203.875 L 406.9375 213.125 Z M 406.9375 213.125 "/>
<path style=" stroke:none;fill-rule: nonzero; fill: rgb(0%,0%,0%); fill-opacity: 1;" d="M 326.132812 240.28125 C 326.132812 236.726562 327.089844 233.945312 329.003906 231.921875 C 330.917969 229.90625 333.390625 228.894531 336.425781 228.894531 C 338.402344 228.894531 340.1875 229.375 341.777344 230.320312 C 343.378906 231.257812 344.59375 232.582031 345.429688 234.285156 C 346.257812 235.980469 346.679688 237.898438 346.679688 240.046875 C 346.679688 242.226562 346.234375 244.167969 345.351562 245.886719 C 344.476562 247.605469 343.234375 248.910156 341.621094 249.792969 C 340.003906 250.679688 338.265625 251.121094 336.40625 251.121094 C 334.382812 251.121094 332.578125 250.632812 330.976562 249.65625 C 329.382812 248.679688 328.183594 247.347656 327.363281 245.652344 C 326.542969 243.960938 326.132812 242.171875 326.132812 240.28125 Z M 329.0625 240.339844 C 329.0625 242.917969 329.757812 244.960938 331.152344 246.453125 C 332.542969 247.9375 334.289062 248.679688 336.386719 248.679688 C 338.535156 248.679688 340.296875 247.933594 341.679688 246.433594 C 343.054688 244.925781 343.75 242.789062 343.75 240.027344 C 343.75 238.285156 343.445312 236.761719 342.851562 235.457031 C 342.265625 234.144531 341.398438 233.128906 340.253906 232.410156 C 339.121094 231.695312 337.851562 231.335938 336.445312 231.335938 C 334.421875 231.335938 332.6875 232.03125 331.230469 233.40625 C 329.785156 234.789062 329.0625 237.097656 329.0625 240.339844 Z M 329.0625 240.339844 "/>
<path style=" stroke:none;fill-rule: nonzero; fill: rgb(0%,0%,0%); fill-opacity: 1;" d="M 349.375 233.5625 L 347.875 232 L 374.8125 205.0625 L 376.375 206.5625 L 349.375 233.5625 Z M 349.375 233.5625 "/>
<path style=" stroke:none;fill-rule: nonzero; fill: rgb(0%,0%,0%); fill-opacity: 1;" d="M 344.125 228.25 L 342.625 226.75 L 369.5625 199.8125 L 371.0625 201.3125 L 344.125 228.25 Z M 344.125 228.25 "/>
<path style=" stroke:none;fill-rule: nonzero; fill: rgb(0%,0%,0%); fill-opacity: 1;" d="M 210.402344 52.6875 L 210.402344 31.203125 L 213.253906 31.203125 L 213.253906 40.03125 L 224.40625 40.03125 L 224.40625 31.203125 L 227.257812 31.203125 L 227.257812 52.6875 L 224.40625 52.6875 L 224.40625 42.570312 L 213.253906 42.570312 L 213.253906 52.6875 L 210.402344 52.6875 Z M 210.402344 52.6875 "/>
<path style=" stroke:none;fill-rule: nonzero; fill: rgb(0%,0%,0%); fill-opacity: 1;" d="M 210.285156 77.769531 L 210.285156 56.285156 L 213.195312 56.285156 L 224.484375 73.160156 L 224.484375 56.285156 L 227.199219 56.285156 L 227.199219 77.769531 L 224.289062 77.769531 L 213.019531 60.894531 L 213.019531 77.769531 L 210.285156 77.769531 Z M 210.285156 77.769531 "/>
<path style=" stroke:none;fill-rule: nonzero; fill: rgb(0%,0%,0%); fill-opacity: 1;" d="M 231 75.25 L 232.0625 73.4375 L 262.0625 90.8125 L 261.8125 91.875 L 260.75 92.4375 L 231 75.25 Z M 231 75.25 "/>
<path style=" stroke:none;fill-rule: nonzero; fill: rgb(0%,0%,0%); fill-opacity: 1;" d="M 175.875 93.0625 L 175.875 90.625 L 205.375 73.5625 L 206.4375 75.4375 L 175.875 93.0625 Z M 175.875 93.0625 "/>
<path style=" stroke:none;fill-rule: nonzero; fill: rgb(0%,0%,0%); fill-opacity: 1;" d="M 132.9375 68.25 L 132.9375 67.0625 L 134 66.4375 L 175.875 90.625 L 175.875 93.0625 L 132.9375 68.25 Z M 132.9375 68.25 "/>
<path style=" stroke:none;fill-rule: nonzero; fill: rgb(0%,0%,0%); fill-opacity: 1;" d="M 91 92.4375 L 89.9375 91.875 L 89.9375 90.625 L 131.875 66.4375 L 132.9375 67.0625 L 132.9375 68.25 L 91 92.4375 Z M 91 92.4375 "/>
<path style=" stroke:none;fill-rule: nonzero; fill: rgb(0%,0%,0%); fill-opacity: 1;" d="M 165.632812 141.90625 C 165.632812 138.351562 166.589844 135.570312 168.503906 133.546875 C 170.417969 131.53125 172.890625 130.519531 175.925781 130.519531 C 177.902344 130.519531 179.6875 131 181.277344 131.945312 C 182.878906 132.882812 184.09375 134.207031 184.929688 135.910156 C 185.757812 137.605469 186.179688 139.523438 186.179688 141.671875 C 186.179688 143.851562 185.734375 145.792969 184.851562 147.511719 C 183.976562 149.230469 182.734375 150.535156 181.121094 151.417969 C 179.503906 152.304688 177.765625 152.746094 175.90625 152.746094 C 173.882812 152.746094 172.078125 152.257812 170.476562 151.28125 C 168.882812 150.304688 167.683594 148.972656 166.863281 147.277344 C 166.042969 145.585938 165.632812 143.796875 165.632812 141.90625 Z M 168.5625 141.964844 C 168.5625 144.542969 169.257812 146.585938 170.652344 148.078125 C 172.042969 149.5625 173.789062 150.304688 175.886719 150.304688 C 178.035156 150.304688 179.796875 149.558594 181.179688 148.058594 C 182.554688 146.550781 183.25 144.414062 183.25 141.652344 C 183.25 139.910156 182.945312 138.386719 182.351562 137.082031 C 181.765625 135.769531 180.898438 134.753906 179.753906 134.035156 C 178.621094 133.320312 177.351562 132.960938 175.945312 132.960938 C 173.921875 132.960938 172.1875 133.65625 170.730469 135.03125 C 169.285156 136.414062 168.5625 138.722656 168.5625 141.964844 Z M 168.5625 141.964844 "/>
<path style=" stroke:none;fill-rule: nonzero; fill: rgb(0%,0%,0%); fill-opacity: 1;" d="M 178.5625 127.75 L 180.6875 127.75 L 180.6875 89.6875 L 178.5625 89.6875 L 178.5625 127.75 Z M 178.5625 127.75 "/>
<path style=" stroke:none;fill-rule: nonzero; fill: rgb(0%,0%,0%); fill-opacity: 1;" d="M 171.0625 127.75 L 173.1875 127.75 L 173.1875 89.6875 L 171.0625 89.6875 L 171.0625 127.75 Z M 171.0625 127.75 "/>
<path style=" stroke:none;fill-rule: nonzero; fill: rgb(0%,0%,0%); fill-opacity: 1;" d="M 124.410156 28.25 L 124.410156 6.765625 L 127.320312 6.765625 L 138.609375 23.640625 L 138.609375 6.765625 L 141.324219 6.765625 L 141.324219 28.25 L 138.414062 28.25 L 127.144531 11.375 L 127.144531 28.25 L 124.410156 28.25 Z M 124.410156 28.25 "/>
<path style=" stroke:none;fill-rule: nonzero; fill: rgb(0%,0%,0%); fill-opacity: 1;" d="M 146.1875 28.25 L 146.1875 6.765625 L 149.039062 6.765625 L 149.039062 15.59375 L 160.191406 15.59375 L 160.191406 6.765625 L 163.042969 6.765625 L 163.042969 28.25 L 160.191406 28.25 L 160.191406 18.132812 L 149.039062 18.132812 L 149.039062 28.25 L 146.1875 28.25 Z M 146.1875 28.25 "/>
<path style=" stroke:none;fill-rule: nonzero; fill: rgb(0%,0%,0%); fill-opacity: 1;" d="M 176.847656 32.710938 L 176.847656 34.605469 L 166.203125 34.605469 C 166.1875 34.128906 166.265625 33.667969 166.4375 33.238281 C 166.710938 32.511719 167.140625 31.792969 167.726562 31.089844 C 168.320312 30.386719 169.191406 29.578125 170.324219 28.648438 C 172.066406 27.21875 173.242188 26.085938 173.859375 25.25 C 174.484375 24.40625 174.796875 23.609375 174.796875 22.867188 C 174.796875 22.078125 174.511719 21.414062 173.957031 20.875 C 173.394531 20.34375 172.667969 20.074219 171.769531 20.074219 C 170.800781 20.074219 170.035156 20.363281 169.464844 20.933594 C 168.902344 21.511719 168.613281 22.296875 168.605469 23.296875 L 166.574219 23.082031 C 166.714844 21.574219 167.238281 20.421875 168.136719 19.625 C 169.042969 18.835938 170.269531 18.433594 171.808594 18.433594 C 173.339844 18.433594 174.5625 18.863281 175.460938 19.722656 C 176.367188 20.582031 176.828125 21.648438 176.828125 22.90625 C 176.828125 23.546875 176.691406 24.175781 176.417969 24.800781 C 176.152344 25.425781 175.71875 26.085938 175.109375 26.773438 C 174.492188 27.46875 173.476562 28.410156 172.0625 29.605469 C 170.875 30.613281 170.113281 31.285156 169.777344 31.636719 C 169.433594 31.988281 169.160156 32.351562 168.957031 32.710938 L 176.847656 32.710938 Z M 176.847656 32.710938 "/>
<path style=" stroke:none;fill-rule: nonzero; fill: rgb(0%,0%,0%); fill-opacity: 1;" d="M 131.875 31.0625 L 134 31.0625 L 134 66.4375 L 132.9375 67.0625 L 131.875 66.4375 L 131.875 31.0625 Z M 131.875 31.0625 "/>
<path style=" stroke:none;fill-rule: nonzero; fill: rgb(0%,0%,0%); fill-opacity: 1;" d="M 47 68.25 L 47 65.8125 L 89.9375 90.625 L 89.9375 91.875 L 88.875 92.4375 L 47 68.25 Z M 47 68.25 "/>
<path style=" stroke:none;fill-rule: nonzero; fill: rgb(0%,0%,0%); fill-opacity: 1;" d="M 46.4375 76.5625 L 47.5 74.6875 L 83.0625 95.25 L 82 97.0625 L 46.4375 76.5625 Z M 46.4375 76.5625 "/>
<path style=" stroke:none;fill-rule: nonzero; fill: rgb(0%,0%,0%); fill-opacity: 1;" d="M 5.0625 92.4375 L 2.9375 91.25 L 47 65.8125 L 47 68.25 L 5.0625 92.4375 Z M 5.0625 92.4375 "/>
<path style=" stroke:none;fill-rule: nonzero; fill: rgb(0%,0%,0%); fill-opacity: 1;" d="M 5.0625 140.875 L 2.9375 142.0625 L 2.9375 91.25 L 5.0625 92.4375 L 5.0625 140.875 Z M 5.0625 140.875 "/>
<path style=" stroke:none;fill-rule: nonzero; fill: rgb(0%,0%,0%); fill-opacity: 1;" d="M 10.375 137.1875 L 12.5 137.1875 L 12.5 96.125 L 10.375 96.125 L 10.375 137.1875 Z M 10.375 137.1875 "/>
<path style=" stroke:none;fill-rule: nonzero; fill: rgb(0%,0%,0%); fill-opacity: 1;" d="M 47 165.0625 L 47 167.5 L 2.9375 142.0625 L 5.0625 140.875 L 47 165.0625 Z M 47 165.0625 "/>
<path style=" stroke:none;fill-rule: nonzero; fill: rgb(0%,0%,0%); fill-opacity: 1;" d="M 88.875 140.875 L 91 142.0625 L 47 167.5 L 47 165.0625 L 88.875 140.875 Z M 88.875 140.875 "/>
<path style=" stroke:none;fill-rule: nonzero; fill: rgb(0%,0%,0%); fill-opacity: 1;" d="M 82 136.25 L 83.0625 138.0625 L 47.5 158.625 L 46.4375 156.75 L 82 136.25 Z M 82 136.25 "/>
<path style=" stroke:none;fill-rule: nonzero; fill: rgb(0%,0%,0%); fill-opacity: 1;" d="M 88.875 92.4375 L 89.9375 91.875 L 91 92.4375 L 91 142.0625 L 88.875 140.875 L 88.875 92.4375 Z M 88.875 92.4375 "/>
<path style=" stroke:none;fill-rule: nonzero; fill: rgb(0%,0%,0%); fill-opacity: 1;" d="M 111.652344 125.6875 L 111.652344 104.203125 L 114.503906 104.203125 L 114.503906 113.03125 L 125.65625 113.03125 L 125.65625 104.203125 L 128.507812 104.203125 L 128.507812 125.6875 L 125.65625 125.6875 L 125.65625 115.570312 L 114.503906 115.570312 L 114.503906 125.6875 L 111.652344 125.6875 Z M 111.652344 125.6875 "/>
<path style=" stroke:none;fill-rule: nonzero; fill: rgb(0%,0%,0%); fill-opacity: 1;" d="M 128.625 101.375 L 119.4375 98.9375 L 120.4375 96.5 L 129 98.75 L 128.625 101.375 Z M 128.625 101.375 "/>
<path style=" stroke:none;fill-rule: nonzero; fill: rgb(0%,0%,0%); fill-opacity: 1;" d="M 129.375 96.125 L 121.4375 94 L 122.4375 91.5625 L 129.6875 93.5 L 129.375 96.125 Z M 129.375 96.125 "/>
<path style=" stroke:none;fill-rule: nonzero; fill: rgb(0%,0%,0%); fill-opacity: 1;" d="M 130.0625 90.875 L 123.4375 89.125 L 124.4375 86.625 L 130.4375 88.25 L 130.0625 90.875 Z M 130.0625 90.875 "/>
<path style=" stroke:none;fill-rule: nonzero; fill: rgb(0%,0%,0%); fill-opacity: 1;" d="M 130.8125 85.625 L 125.4375 84.1875 L 126.5 81.75 L 131.125 83 L 130.8125 85.625 Z M 130.8125 85.625 "/>
<path style=" stroke:none;fill-rule: nonzero; fill: rgb(0%,0%,0%); fill-opacity: 1;" d="M 131.5 80.375 L 127.5 79.25 L 128.5 76.8125 L 131.875 77.75 L 131.5 80.375 Z M 131.5 80.375 "/>
<path style=" stroke:none;fill-rule: nonzero; fill: rgb(0%,0%,0%); fill-opacity: 1;" d="M 132.1875 75.0625 L 129.5 74.375 L 130.5 71.9375 L 132.5625 72.4375 L 132.1875 75.0625 Z M 132.1875 75.0625 "/>
<path style=" stroke:none;fill-rule: nonzero; fill: rgb(0%,0%,0%); fill-opacity: 1;" d="M 216.507812 177.03125 C 216.507812 173.476562 217.464844 170.695312 219.378906 168.671875 C 221.292969 166.65625 223.765625 165.644531 226.800781 165.644531 C 228.777344 165.644531 230.5625 166.125 232.152344 167.070312 C 233.753906 168.007812 234.96875 169.332031 235.804688 171.035156 C 236.632812 172.730469 237.054688 174.648438 237.054688 176.796875 C 237.054688 178.976562 236.609375 180.917969 235.726562 182.636719 C 234.851562 184.355469 233.609375 185.660156 231.996094 186.542969 C 230.378906 187.429688 228.640625 187.871094 226.78125 187.871094 C 224.757812 187.871094 222.953125 187.382812 221.351562 186.40625 C 219.757812 185.429688 218.558594 184.097656 217.738281 182.402344 C 216.917969 180.710938 216.507812 178.921875 216.507812 177.03125 Z M 219.4375 177.089844 C 219.4375 179.667969 220.132812 181.710938 221.527344 183.203125 C 222.917969 184.6875 224.664062 185.429688 226.761719 185.429688 C 228.910156 185.429688 230.671875 184.683594 232.054688 183.183594 C 233.429688 181.675781 234.125 179.539062 234.125 176.777344 C 234.125 175.035156 233.820312 173.511719 233.226562 172.207031 C 232.640625 170.894531 231.773438 169.878906 230.628906 169.160156 C 229.496094 168.445312 228.226562 168.085938 226.820312 168.085938 C 224.796875 168.085938 223.0625 168.78125 221.605469 170.15625 C 220.160156 171.539062 219.4375 173.847656 219.4375 177.089844 Z M 219.4375 177.089844 "/>
<path style=" stroke:none;fill-rule: nonzero; fill: rgb(0%,0%,0%); fill-opacity: 1;" d="M 239.75 170.25 L 238.25 168.75 L 266.3125 140.6875 L 267.8125 142.1875 L 239.75 170.25 Z M 239.75 170.25 "/>
<path style=" stroke:none;fill-rule: nonzero; fill: rgb(0%,0%,0%); fill-opacity: 1;" d="M 234.5 165 L 233 163.5 L 261.0625 135.4375 L 262.5625 136.9375 L 234.5 165 Z M 234.5 165 "/>
<path style=" stroke:none;fill-rule: nonzero; fill: rgb(0%,0%,0%); fill-opacity: 1;" d="M 307.214844 192.375 L 307.214844 170.890625 L 310.066406 170.890625 L 310.066406 179.71875 L 321.21875 179.71875 L 321.21875 170.890625 L 324.070312 170.890625 L 324.070312 192.375 L 321.21875 192.375 L 321.21875 182.257812 L 310.066406 182.257812 L 310.066406 192.375 L 307.214844 192.375 Z M 307.214844 192.375 "/>
<path style=" stroke:none;fill-rule: nonzero; fill: rgb(0%,0%,0%); fill-opacity: 1;" d="M 331.375 178.0625 L 326.5625 169.75 L 355.625 156.9375 L 358.625 156.8125 L 358 158.5625 L 331.375 178.0625 Z M 331.375 178.0625 "/>
<path style=" stroke:none;fill-rule: nonzero; fill: rgb(0%,0%,0%); fill-opacity: 1;" d="M 253.339844 53 L 253.339844 31.515625 L 256.191406 31.515625 L 256.191406 40.34375 L 267.34375 40.34375 L 267.34375 31.515625 L 270.195312 31.515625 L 270.195312 53 L 267.34375 53 L 267.34375 42.882812 L 256.191406 42.882812 L 256.191406 53 L 253.339844 53 Z M 253.339844 53 "/>
<path style=" stroke:none;fill-rule: nonzero; fill: rgb(0%,0%,0%); fill-opacity: 1;" d="M 257 55.8125 L 266.5625 55.8125 L 266.25 58.625 L 257.375 58.625 L 257 55.8125 Z M 257 55.8125 "/>
<path style=" stroke:none;fill-rule: nonzero; fill: rgb(0%,0%,0%); fill-opacity: 1;" d="M 257.6875 61.4375 L 265.9375 61.4375 L 265.5625 64.1875 L 258.0625 64.1875 L 257.6875 61.4375 Z M 257.6875 61.4375 "/>
<path style=" stroke:none;fill-rule: nonzero; fill: rgb(0%,0%,0%); fill-opacity: 1;" d="M 258.375 67 L 265.25 67 L 264.875 69.8125 L 258.6875 69.8125 L 258.375 67 Z M 258.375 67 "/>
<path style=" stroke:none;fill-rule: nonzero; fill: rgb(0%,0%,0%); fill-opacity: 1;" d="M 259.0625 72.5625 L 264.5625 72.5625 L 264.25 75.375 L 259.375 75.375 L 259.0625 72.5625 Z M 259.0625 72.5625 "/>
<path style=" stroke:none;fill-rule: nonzero; fill: rgb(0%,0%,0%); fill-opacity: 1;" d="M 259.75 78.1875 L 263.875 78.1875 L 263.5625 80.9375 L 260.0625 80.9375 L 259.75 78.1875 Z M 259.75 78.1875 "/>
<path style=" stroke:none;fill-rule: nonzero; fill: rgb(0%,0%,0%); fill-opacity: 1;" d="M 260.375 83.75 L 263.1875 83.75 L 262.875 86.5625 L 260.75 86.5625 L 260.375 83.75 Z M 260.375 83.75 "/>
<path style=" stroke:none;fill-rule: nonzero; fill: rgb(0%,0%,0%); fill-opacity: 1;" d="M 302.964844 53 L 302.964844 31.515625 L 305.816406 31.515625 L 305.816406 40.34375 L 316.96875 40.34375 L 316.96875 31.515625 L 319.820312 31.515625 L 319.820312 53 L 316.96875 53 L 316.96875 42.882812 L 305.816406 42.882812 L 305.816406 53 L 302.964844 53 Z M 302.964844 53 "/>
<path style=" stroke:none;fill-rule: nonzero; fill: rgb(0%,0%,0%); fill-opacity: 1;" d="M 306.625 55.8125 L 316.1875 55.8125 L 315.875 58.625 L 307 58.625 L 306.625 55.8125 Z M 306.625 55.8125 "/>
<path style=" stroke:none;fill-rule: nonzero; fill: rgb(0%,0%,0%); fill-opacity: 1;" d="M 307.3125 61.4375 L 315.5 61.4375 L 315.1875 64.1875 L 307.625 64.1875 L 307.3125 61.4375 Z M 307.3125 61.4375 "/>
<path style=" stroke:none;fill-rule: nonzero; fill: rgb(0%,0%,0%); fill-opacity: 1;" d="M 308 67 L 314.875 67 L 314.5 69.8125 L 308.3125 69.8125 L 308 67 Z M 308 67 "/>
<path style=" stroke:none;fill-rule: nonzero; fill: rgb(0%,0%,0%); fill-opacity: 1;" d="M 308.6875 72.5625 L 314.1875 72.5625 L 313.8125 75.375 L 309 75.375 L 308.6875 72.5625 Z M 308.6875 72.5625 "/>
<path style=" stroke:none;fill-rule: nonzero; fill: rgb(0%,0%,0%); fill-opacity: 1;" d="M 309.3125 78.1875 L 313.5 78.1875 L 313.1875 80.9375 L 309.6875 80.9375 L 309.3125 78.1875 Z M 309.3125 78.1875 "/>
<path style=" stroke:none;fill-rule: nonzero; fill: rgb(0%,0%,0%); fill-opacity: 1;" d="M 310 83.75 L 312.8125 83.75 L 312.5 86.5625 L 310.375 86.5625 L 310 83.75 Z M 310 83.75 "/>
</g>
</g>
</svg>
